<?xml version="1.0" encoding="UTF-8" standalone="no"?>
<svg width="215px" height="236px" viewBox="0 0 215 236" version="1.1" xmlns="http://www.w3.org/2000/svg" xmlns:xlink="http://www.w3.org/1999/xlink">
    <!-- Generator: Sketch 3.8.3 (29802) - http://www.bohemiancoding.com/sketch -->
    <title>Group 8</title>
    <desc>Created with Sketch.</desc>
    <defs></defs>
    <g id="Page-1" stroke="none" stroke-width="1" fill="none" fill-rule="evenodd">
        <g id="Group-8" fill="#FFFFFF">
            <path d="M147.345487,146.000008 C137.632359,164.433217 118.283744,177 96,177 C63.9674845,177 38,151.032515 38,119 C38,86.9674845 63.9674845,61 96,61 C116.205024,61 133.996979,71.3315751 144.381141,87 L140.648294,87 C131.843504,76.6014007 118.692672,70 104,70 C77.490332,70 56,91.490332 56,118 C56,144.509668 77.490332,166 104,166 C120.060204,166 134.278195,158.112549 142.991621,146 L147.345491,146 Z" id="Combined-Shape"></path>
            <path d="M214.892489,75.3294688 C200.484418,38.2118774 167.595921,9.30640192 125.521962,1.88762781 C73.426322,-7.29823916 23.2971,19.2874163 0.333393531,63.9999964 L4.11432864,64 C25.9039023,27.4464112 68.7074437,6.28469501 113.10462,14.113115 C149.053521,20.4518763 177.51986,44.2939054 191.284681,75.3294674 L214.892497,75.3294701 Z M213.555683,163.67053 C192.696545,213.164317 139.765475,243.507869 84.631962,233.786343 C48.280299,227.376564 18.7854567,204.927258 2.14231478,175 L5.97222734,175 C21.3300731,198.925756 46.2534829,216.609841 76.4598317,221.936036 C124.148652,230.344861 169.99877,205.30549 189.942167,163.67053 L213.555687,163.67053 Z" id="Combined-Shape"></path>
        </g>
    </g>
</svg>