<?xml version="1.0" encoding="UTF-8" standalone="no"?>
<svg width="46px" height="46px" viewBox="0 0 46 46" version="1.1" xmlns="http://www.w3.org/2000/svg" xmlns:xlink="http://www.w3.org/1999/xlink">
    <!-- Generator: Sketch 3.8.3 (29802) - http://www.bohemiancoding.com/sketch -->
    <title>Group 5</title>
    <desc>Created with Sketch.</desc>
    <defs></defs>
    <g id="Page-1" stroke="none" stroke-width="1" fill="none" fill-rule="evenodd">
        <g id="Group-5" transform="translate(1.000000, 1.000000)">
            <circle id="Oval-20" stroke-opacity="0.59" stroke="#CCCCCC" fill="#FFFFFF" cx="22" cy="22" r="22"></circle>
            <g id="noun_385832_cc" transform="translate(7.000000, 9.000000)" opacity="0.4" fill="#17B2E8">
                <g id="Group">
                    <path d="M1.28888889,22.991251 C0.995959596,23.1989139 1.08383838,23.6439059 1.43535354,23.7032381 C2.66565657,23.8812349 4.77474747,23.910901 6.70808081,22.7242558 C8.87575758,23.9702333 11.4242424,24.6822204 14.2070707,24.6822204 C15.8767677,24.6822204 17.4585859,24.4152253 18.9232323,23.9405672 L18.9232323,23.7922365 L18.9232323,19.6983105 C18.9232323,18.9269912 19.2747475,18.2743363 19.8313131,17.8293443 L19.8313131,17.6513475 C19.8313131,14.9813958 21.969697,12.7861022 24.6353535,12.7861022 L24.6353535,12.7861022 L24.8111111,12.7861022 C26.0121212,12.8454344 27.0666667,13.3200925 27.8868687,14.0914119 C27.9747475,13.5574216 28.0040404,13.0234312 28.0040404,12.4597747 C28.0040404,5.69589702 21.8232323,0.207662912 14.2070707,0.207662912 C6.59090909,0.207662912 0.41010101,5.69589702 0.41010101,12.4597747 C0.41010101,15.3670555 1.55252525,18.0370072 3.48585859,20.1433025 C3.10505051,21.1222848 2.46060606,22.2199316 1.28888889,22.991251 L1.28888889,22.991251 Z M18.1909091,11.1841311 C18.8646465,11.1841311 19.4505051,11.7477876 19.4505051,12.4597747 C19.4505051,13.1420957 18.8939394,13.7354183 18.1909091,13.7354183 C17.5171717,13.7354183 16.9313131,13.1717619 16.9313131,12.4597747 C16.9313131,11.7774537 17.5171717,11.1841311 18.1909091,11.1841311 L18.1909091,11.1841311 Z M14.1777778,11.1841311 C14.8515152,11.1841311 15.4373737,11.7477876 15.4373737,12.4597747 C15.4373737,13.1420957 14.8808081,13.7354183 14.1777778,13.7354183 C13.5040404,13.7354183 12.9181818,13.1717619 12.9181818,12.4597747 C12.9474747,11.7774537 13.5040404,11.1841311 14.1777778,11.1841311 L14.1777778,11.1841311 Z M10.1646465,11.1841311 C10.8383838,11.1841311 11.4242424,11.7477876 11.4242424,12.4597747 C11.4242424,13.1420957 10.8676768,13.7354183 10.1646465,13.7354183 C9.46161616,13.7354183 8.90505051,13.1717619 8.90505051,12.4597747 C8.93434343,11.7774537 9.49090909,11.1841311 10.1646465,11.1841311 L10.1646465,11.1841311 Z M27.9454545,18.8083266 L27.9454545,17.7106798 C27.9454545,15.8713797 26.5393939,14.3287409 24.7525253,14.2694087 L24.6353535,14.2694087 C22.789899,14.2694087 21.2959596,15.7823813 21.2959596,17.6513475 L21.2959596,18.8379928 L21.2666667,18.8379928 C20.7686869,18.8379928 20.3878788,19.2236525 20.3878788,19.7279767 L20.3878788,23.8515688 C20.3878788,24.355893 20.7686869,24.7415527 21.2666667,24.7415527 L28.0333333,24.7415527 C28.5313131,24.7415527 28.9121212,24.355893 28.9121212,23.8515688 L28.9121212,19.6983105 C28.9121212,19.1939863 28.5313131,18.8083266 28.0333333,18.8083266 L27.9454545,18.8083266 L27.9454545,18.8083266 Z M25.3090909,22.7835881 C25.3383838,22.9022526 25.2505051,22.991251 25.1333333,22.991251 L24.6353535,22.991251 L24.1373737,22.991251 C24.020202,22.991251 23.9616162,22.9022526 23.9616162,22.7835881 L24.1373737,21.8639381 C23.9616162,21.7156074 23.8737374,21.5079445 23.8737374,21.3002816 C23.8737374,20.8849558 24.1959596,20.5586283 24.6060606,20.5586283 L24.6939394,20.5586283 C25.0161616,20.5882944 25.279798,20.8552896 25.3383838,21.1816171 C25.3676768,21.4486122 25.279798,21.7156074 25.1040404,21.8639381 L25.3090909,22.7835881 L25.3090909,22.7835881 Z M26.4808081,18.8083266 L22.7313131,18.8083266 L22.7313131,18.8083266 L22.7313131,17.6216814 C22.7313131,16.5833669 23.5808081,15.7230491 24.6060606,15.7230491 L24.7818182,15.7230491 C25.7484848,15.8120475 26.4808081,16.6723652 26.4808081,17.6513475 L26.4808081,18.8083266 L26.4808081,18.8083266 Z" id="Shape"></path>
                </g>
            </g>
        </g>
    </g>
</svg>