<?xml version="1.0" encoding="UTF-8" standalone="no"?>
<svg width="46px" height="46px" viewBox="0 0 46 46" version="1.1" xmlns="http://www.w3.org/2000/svg" xmlns:xlink="http://www.w3.org/1999/xlink">
    <!-- Generator: Sketch 3.8.3 (29802) - http://www.bohemiancoding.com/sketch -->
    <title>Group 6</title>
    <desc>Created with Sketch.</desc>
    <defs></defs>
    <g id="Page-1" stroke="none" stroke-width="1" fill="none" fill-rule="evenodd">
        <g id="Group-6" transform="translate(1.000000, 1.000000)">
            <circle id="Oval-20" stroke-opacity="0.59" stroke="#CCCCCC" fill="#FFFFFF" cx="22" cy="22" r="22"></circle>
            <g id="noun_302770_cc" transform="translate(7.000000, 6.000000)" opacity="0.4" fill="#17B2E8">
                <g id="Group">
                    <g id="Shape">
                        <path d="M14.8151163,16.9142857 C21.0872093,16.9142857 28.3325581,15.5076923 28.9813953,14.2417582 C29.6302326,12.9758242 20.9069767,11.2879121 20.9069767,11.2879121 C18.8162791,12.2373626 14.7790698,12.2373626 14.7790698,12.2373626 C14.7790698,12.2373626 10.7418605,12.2373626 8.65116279,11.2879121 C8.65116279,11.2879121 -0.0360465116,13.010989 0.612790698,14.2769231 C1.29767442,15.5076923 8.3627907,16.9142857 14.8151163,16.9142857 L14.8151163,16.9142857 Z"></path>
                        <path d="M20.222093,8.86153846 C20.222093,8.86153846 18.9965116,2.03956044 18.0953488,0.703296703 C17.194186,-0.632967033 15.8244186,2.28571429 14.4186047,2.28571429 C13.0127907,2.28571429 12.6883721,0.421978022 11.4267442,0.351648352 C10.1290698,0.281318681 8.86744186,8.86153846 8.86744186,8.86153846 C8.86744186,8.86153846 15.5,10.3384615 20.222093,8.86153846 L20.222093,8.86153846 Z"></path>
                        <path d="M8.83139535,17.3362637 C8.83139535,17.3362637 8.25465116,19.9384615 11.7151163,20.0087912 C11.7151163,20.0087912 13.0488372,20.0087912 13.7337209,18.8483516 C13.95,18.4967033 14.2744186,18.2857143 14.7069767,18.2857143 L14.8511628,18.2857143 C15.2476744,18.2857143 15.6081395,18.4967033 15.8244186,18.8483516 C16.5093023,20.0087912 17.8430233,20.0087912 17.8430233,20.0087912 C21.3034884,19.9384615 20.7267442,17.3362637 20.7267442,17.3362637 C19.1406977,17.8637363 16.6534884,17.8285714 15.7883721,17.7934066 L15.7883721,17.7934066 L15.4639535,17.7934066 L15.4639535,17.7934066 L14.094186,17.7934066 C14.1302326,17.7582418 10.777907,17.9340659 8.83139535,17.3362637 L8.83139535,17.3362637 Z"></path>
                        <path d="M7.46162791,17.3362637 L4.79418605,16.9494505 L0.180232558,20.8175824 L0.612790698,20.8175824 C2.66744186,20.8175824 8.11046512,22.5054945 8.11046512,22.5054945 L5.22674419,24.9318681 C7.38953488,25.3538462 14.2023256,28.9054945 14.2023256,28.9054945 L14.8511628,26.5846154 C9.40813953,22.6813187 7.46162791,17.3362637 7.46162791,17.3362637 L7.46162791,17.3362637 Z"></path>
                        <path d="M30.855814,20.7120879 L25.2686047,16.9142857 L22.2767442,17.3010989 C22.4569767,18.2505495 21.844186,19.9736264 21.844186,19.9736264 C13.2290698,26.3384615 14.6348837,32 14.6348837,32 C18.0593023,25.389011 25.5930233,24.4747253 25.5930233,24.4747253 L22.1686047,22.8923077 C24.4034884,21.5208791 30.855814,20.7120879 30.855814,20.7120879 L30.855814,20.7120879 Z"></path>
                    </g>
                </g>
            </g>
        </g>
    </g>
</svg>